<svg id="Layer_1" data-name="Layer 1" xmlns="http://www.w3.org/2000/svg" xmlns:xlink="http://www.w3.org/1999/xlink" viewBox="0 0 587.4 658.15"><defs><clipPath id="clip-path" transform="translate(-106.3 -70.92)"><path d="M465,135.92a65,65,0,1,1-65-65A65,65,0,0,1,465,135.92Zm163.7,65a65,65,0,1,0,65,65A65,65,0,0,0,628.7,200.92Zm0,264.08a65,65,0,1,0,65,65A65,65,0,0,0,628.7,465ZM400,599.08a65,65,0,1,0,65,65A65,65,0,0,0,400,599.08ZM171.3,465a65,65,0,1,0,65,65A65,65,0,0,0,171.3,465Zm0-264.08a65,65,0,1,0,65,65A65,65,0,0,0,171.3,200.92Z" style="fill:none"/></clipPath><linearGradient id="linear-gradient" x1="-69.07" y1="119.63" x2="656.47" y2="538.52" gradientUnits="userSpaceOnUse"><stop offset="0" stop-color="#12af2f"/><stop offset="0.11" stop-color="#11ae38"/><stop offset="0.29" stop-color="#0fac52"/><stop offset="0.51" stop-color="#0ba87b"/><stop offset="0.78" stop-color="#05a3b4"/><stop offset="1" stop-color="#009ee9"/></linearGradient><clipPath id="clip-path-2" transform="translate(-106.3 -70.92)"><path d="M250.81,230.52l-7.5-13,42.07-24.29,7.5,13Zm53.28-4.88L334,173.82H274.17ZM559.21,580.47l-7.5-13-49.66,28.67,7.5,13Zm-60.78-8.11-29.91,51.82h59.83ZM328.31,613.6l-49.65-28.67-7.5,13,49.65,28.67ZM297.44,569.9H237.61l29.91,51.82ZM527.16,200L477.5,171.33l-7.5,13L519.66,213Zm-26.29,28H560.7l-29.91-51.82ZM636.2,349.8h-15v57.34h15V349.8Zm-37.42,48.58L628.7,450.2l29.92-51.81H598.78Zm-420-5.52h-15V450.2h15V392.86Zm22.42,8.75L171.3,349.8l-29.92,51.81h59.84Z" style="fill:none"/></clipPath></defs><title>Emergent Strategies Process</title><g style="clip-path:url(#clip-path)"><rect width="587.4" height="658.15" style="fill:url(#linear-gradient)"/></g><path d="M133.73,266.37q0-1,0-2t-0.08-2.66h2.08v2.78h0.06a4.65,4.65,0,0,1,.64-1.17,5,5,0,0,1,1-1,5,5,0,0,1,1.38-.72,5.41,5.41,0,0,1,1.78-.27,5.74,5.74,0,0,1,1.57.19l-0.42,2.08a3.56,3.56,0,0,0-1.22-.16,4.35,4.35,0,0,0-2.08.46,4.62,4.62,0,0,0-1.44,1.18,4.91,4.91,0,0,0-.85,1.55,5.13,5.13,0,0,0-.27,1.6v8.45h-2.11v-10.3Z" transform="translate(-106.3 -70.92)" style="fill:#f2f2f2"/><path d="M145,269.76a6.42,6.42,0,0,0,.54,2.11,5.52,5.52,0,0,0,2.88,2.85,5.16,5.16,0,0,0,2.08.42,5.34,5.34,0,0,0,2.93-.78,5.86,5.86,0,0,0,1.87-1.81l1.63,1.34a8.11,8.11,0,0,1-3,2.43,8.28,8.28,0,0,1-3.47.74,8,8,0,0,1-3.09-.59,7.22,7.22,0,0,1-2.45-1.65,7.8,7.8,0,0,1-1.62-2.5,8.16,8.16,0,0,1-.59-3.14,8.37,8.37,0,0,1,.58-3.14,7.59,7.59,0,0,1,1.6-2.5,7.36,7.36,0,0,1,2.4-1.65,7.45,7.45,0,0,1,3-.59,7.3,7.3,0,0,1,3,.61,6.74,6.74,0,0,1,2.26,1.62,6.92,6.92,0,0,1,1.39,2.37,8.63,8.63,0,0,1,.48,2.9v1H145ZM155.2,268a4.79,4.79,0,0,0-1.28-3.47,4.74,4.74,0,0,0-3.58-1.33,5.11,5.11,0,0,0-2,.4,5.59,5.59,0,0,0-1.68,1.07,5.38,5.38,0,0,0-1.15,1.54,4,4,0,0,0-.43,1.79H155.2Z" transform="translate(-106.3 -70.92)" style="fill:#f2f2f2"/><path d="M168.32,263.62h-3.55v13.06h-2.11V263.62h-3.17V261.7h3.17v-4.1q0-3,1.38-4.24a5.18,5.18,0,0,1,3.65-1.26,6.69,6.69,0,0,1,.91.06q0.46,0.06.91,0.16l-0.38,1.92q-0.38-.1-0.8-0.16a5.49,5.49,0,0,0-.83-0.06,3,3,0,0,0-1.41.29,2,2,0,0,0-.83.82,3.55,3.55,0,0,0-.38,1.23,11.07,11.07,0,0,0-.1,1.5v3.84h3.55v1.92Z" transform="translate(-106.3 -70.92)" style="fill:#f2f2f2"/><path d="M173.89,255.94a1.42,1.42,0,0,1-.48,1.1,1.51,1.51,0,0,1-2.11,0,1.51,1.51,0,0,1,0-2.21,1.51,1.51,0,0,1,2.11,0A1.42,1.42,0,0,1,173.89,255.94Zm-0.48,20.74h-2.11v-15h2.11v15Z" transform="translate(-106.3 -70.92)" style="fill:#f2f2f2"/><path d="M180.51,261.7q0.06,0.61.08,1.2t0,1.2h0.06a4.92,4.92,0,0,1,.9-1.12,5.91,5.91,0,0,1,1.22-.88,6.68,6.68,0,0,1,1.42-.58,5.56,5.56,0,0,1,1.49-.21,5.47,5.47,0,0,1,4.26,1.52,6.24,6.24,0,0,1,1.38,4.34v9.5h-2.11v-8.29a7,7,0,0,0-.86-3.82,3.53,3.53,0,0,0-3.2-1.33,8.19,8.19,0,0,0-.9.13,3.89,3.89,0,0,0-1.55.7,5.07,5.07,0,0,0-1.46,1.73,6.64,6.64,0,0,0-.64,3.2v7.68h-2.11V265q0-.61,0-1.54t-0.11-1.76h2.18Z" transform="translate(-106.3 -70.92)" style="fill:#f2f2f2"/><path d="M197.76,269.76a6.42,6.42,0,0,0,.54,2.11,5.52,5.52,0,0,0,2.88,2.85,5.16,5.16,0,0,0,2.08.42,5.34,5.34,0,0,0,2.93-.78,5.86,5.86,0,0,0,1.87-1.81l1.63,1.34a8.11,8.11,0,0,1-3,2.43,8.28,8.28,0,0,1-3.47.74,8,8,0,0,1-3.09-.59,7.22,7.22,0,0,1-2.45-1.65,7.8,7.8,0,0,1-1.62-2.5,8.16,8.16,0,0,1-.59-3.14,8.37,8.37,0,0,1,.58-3.14,7.59,7.59,0,0,1,1.6-2.5,7.36,7.36,0,0,1,2.4-1.65,7.45,7.45,0,0,1,3-.59,7.3,7.3,0,0,1,3,.61,6.74,6.74,0,0,1,2.26,1.62,6.92,6.92,0,0,1,1.39,2.37,8.63,8.63,0,0,1,.48,2.9v1H197.76ZM207.93,268a4.79,4.79,0,0,0-1.28-3.47,4.74,4.74,0,0,0-3.58-1.33,5.11,5.11,0,0,0-2,.4,5.59,5.59,0,0,0-1.68,1.07,5.38,5.38,0,0,0-1.15,1.54,4,4,0,0,0-.43,1.79h10.11Z" transform="translate(-106.3 -70.92)" style="fill:#f2f2f2"/><path d="M605.95,267.49v-0.38q0-3.87-3.84-3.87a6.62,6.62,0,0,0-4.58,1.76l-1.28-1.5q2.11-2.18,6.34-2.18a6.91,6.91,0,0,1,2.1.32,4.74,4.74,0,0,1,1.74,1,4.84,4.84,0,0,1,1.18,1.65,5.72,5.72,0,0,1,.45,2.37v6.69q0,0.86.08,1.81t0.18,1.55h-2a11.89,11.89,0,0,1-.14-1.18q0-.64,0-1.25H606a5.72,5.72,0,0,1-2.19,2.16,6.65,6.65,0,0,1-3.09.66,6.79,6.79,0,0,1-1.92-.27,4.89,4.89,0,0,1-1.65-.83,4.22,4.22,0,0,1-1.15-1.38,4,4,0,0,1-.43-1.9,4.1,4.1,0,0,1,.94-2.86,5.77,5.77,0,0,1,2.37-1.55,11.68,11.68,0,0,1,3-.64q1.61-.13,3-0.13h1.06Zm-1.09,1.73q-0.8,0-2,.08a11.61,11.61,0,0,0-2.3.38,5.08,5.08,0,0,0-1.89.94,2.15,2.15,0,0,0-.78,1.76,2.49,2.49,0,0,0,.3,1.26,2.52,2.52,0,0,0,.82.86,3.47,3.47,0,0,0,1.14.48,5.59,5.59,0,0,0,1.26.14,4.82,4.82,0,0,0,2-.38,4.07,4.07,0,0,0,2.27-2.58,6.29,6.29,0,0,0,.27-1.87v-1.09h-1.09Z" transform="translate(-106.3 -70.92)" style="fill:#f2f2f2"/><path d="M615.55,276.67h-2.11V252.48h2.11v24.19Z" transform="translate(-106.3 -70.92)" style="fill:#f2f2f2"/><path d="M623.71,255.94a1.42,1.42,0,0,1-.48,1.1,1.51,1.51,0,0,1-2.11,0,1.51,1.51,0,0,1,0-2.21,1.51,1.51,0,0,1,2.11,0A1.42,1.42,0,0,1,623.71,255.94Zm-0.48,20.74h-2.11v-15h2.11v15Z" transform="translate(-106.3 -70.92)" style="fill:#f2f2f2"/><path d="M629.47,279.68a6.74,6.74,0,0,0,2.42,2,7.24,7.24,0,0,0,3.31.75,7.11,7.11,0,0,0,2.72-.46,4.72,4.72,0,0,0,1.81-1.26,4.89,4.89,0,0,0,1-1.87,8.38,8.38,0,0,0,.3-2.29v-2.69H641a5.77,5.77,0,0,1-2.5,2.18,7.7,7.7,0,0,1-3.1.64,8.06,8.06,0,0,1-3.06-.58,7.75,7.75,0,0,1-2.48-1.58,7.29,7.29,0,0,1-1.66-2.42,7.58,7.58,0,0,1-.61-3,8,8,0,0,1,.58-3,7.83,7.83,0,0,1,1.58-2.46,7.16,7.16,0,0,1,2.4-1.65,7.73,7.73,0,0,1,3.06-.59,8.55,8.55,0,0,1,1.42.13,6.76,6.76,0,0,1,1.5.45,6.94,6.94,0,0,1,2.86,2.3H641v-2.5h2.11v14.85a12,12,0,0,1-.3,2.59,6.41,6.41,0,0,1-1.18,2.53,6.75,6.75,0,0,1-2.45,1.92,9.36,9.36,0,0,1-4.1.77,10.28,10.28,0,0,1-4-.74,9.29,9.29,0,0,1-3.2-2.27ZM629.85,269a5.74,5.74,0,0,0,.43,2.22,5.84,5.84,0,0,0,1.18,1.82,5.73,5.73,0,0,0,1.76,1.25,5.18,5.18,0,0,0,2.19.46,5.87,5.87,0,0,0,4-1.58,5.09,5.09,0,0,0,1.23-1.81,5.82,5.82,0,0,0,.4-2.37,6.37,6.37,0,0,0-.38-2.22,5.33,5.33,0,0,0-1.12-1.82,5.41,5.41,0,0,0-1.79-1.25,5.83,5.83,0,0,0-2.37-.46,5.18,5.18,0,0,0-2.19.46,5.74,5.74,0,0,0-1.76,1.25,5.84,5.84,0,0,0-1.18,1.82A5.74,5.74,0,0,0,629.85,269Z" transform="translate(-106.3 -70.92)" style="fill:#f2f2f2"/><path d="M649.88,261.7q0.06,0.61.08,1.2t0,1.2H650a4.91,4.91,0,0,1,.9-1.12,5.9,5.9,0,0,1,1.22-.88,6.69,6.69,0,0,1,1.42-.58,5.56,5.56,0,0,1,1.49-.21,5.47,5.47,0,0,1,4.26,1.52,6.24,6.24,0,0,1,1.38,4.34v9.5h-2.11v-8.29a7,7,0,0,0-.86-3.82,3.53,3.53,0,0,0-3.2-1.33,8.19,8.19,0,0,0-.9.13,3.9,3.9,0,0,0-1.55.7,5.08,5.08,0,0,0-1.46,1.73A6.64,6.64,0,0,0,650,269v7.68h-2.11V265q0-.61,0-1.54t-0.11-1.76h2.18Z" transform="translate(-106.3 -70.92)" style="fill:#f2f2f2"/><path d="M587.56,540.75h-2.11v-2.5h-0.06a5.5,5.5,0,0,1-1.22,1.31,7.5,7.5,0,0,1-1.47.9,7,7,0,0,1-1.58.51,8.09,8.09,0,0,1-1.55.16,8.47,8.47,0,0,1-3.22-.59,7.42,7.42,0,0,1-4.16-4.14,8.61,8.61,0,0,1,0-6.27,7.42,7.42,0,0,1,4.16-4.14,8.47,8.47,0,0,1,3.22-.59,8.09,8.09,0,0,1,1.55.16,7.08,7.08,0,0,1,1.58.51,7.55,7.55,0,0,1,1.47.9,5.52,5.52,0,0,1,1.22,1.31h0.06V516.56h2.11v24.19Zm-13.66-7.49a6.7,6.7,0,0,0,.4,2.34,5.6,5.6,0,0,0,1.14,1.89,5.32,5.32,0,0,0,1.78,1.26,5.7,5.7,0,0,0,2.35.46,6.08,6.08,0,0,0,2.38-.46,5.87,5.87,0,0,0,1.9-1.26,5.72,5.72,0,0,0,1.25-1.89,6.31,6.31,0,0,0,0-4.67,5.73,5.73,0,0,0-1.25-1.89,5.88,5.88,0,0,0-1.9-1.26,6.08,6.08,0,0,0-2.38-.46,5.7,5.7,0,0,0-2.35.46,5.34,5.34,0,0,0-1.78,1.26,5.61,5.61,0,0,0-1.14,1.89A6.7,6.7,0,0,0,573.9,533.26Z" transform="translate(-106.3 -70.92)" style="fill:#f2f2f2"/><path d="M593.64,533.84a6.41,6.41,0,0,0,.54,2.11,5.52,5.52,0,0,0,2.88,2.85,5.16,5.16,0,0,0,2.08.42,5.34,5.34,0,0,0,2.93-.78,5.85,5.85,0,0,0,1.87-1.81l1.63,1.34a8.1,8.1,0,0,1-3,2.43,8.28,8.28,0,0,1-3.47.74,8,8,0,0,1-3.09-.59,7.23,7.23,0,0,1-2.45-1.65,7.81,7.81,0,0,1-1.62-2.5,8.17,8.17,0,0,1-.59-3.14,8.37,8.37,0,0,1,.58-3.14,7.59,7.59,0,0,1,1.6-2.5A7.35,7.35,0,0,1,596,526a7.45,7.45,0,0,1,3-.59,7.3,7.3,0,0,1,3,.61,6.74,6.74,0,0,1,2.26,1.62,6.92,6.92,0,0,1,1.39,2.37,8.63,8.63,0,0,1,.48,2.9v1H593.64Zm10.18-1.73a4.79,4.79,0,0,0-1.28-3.47,4.74,4.74,0,0,0-3.58-1.33,5.11,5.11,0,0,0-2,.4,5.6,5.6,0,0,0-1.68,1.07,5.39,5.39,0,0,0-1.15,1.54,4,4,0,0,0-.43,1.79h10.11Z" transform="translate(-106.3 -70.92)" style="fill:#f2f2f2"/><path d="M616.55,540.75h-2.37l-6.08-15h2.5l4.8,12.61h0.06l4.77-12.61h2.4Z" transform="translate(-106.3 -70.92)" style="fill:#f2f2f2"/><path d="M626.86,533.84a6.41,6.41,0,0,0,.54,2.11,5.52,5.52,0,0,0,2.88,2.85,5.16,5.16,0,0,0,2.08.42,5.34,5.34,0,0,0,2.93-.78,5.85,5.85,0,0,0,1.87-1.81l1.63,1.34a8.1,8.1,0,0,1-3,2.43,8.28,8.28,0,0,1-3.47.74,8,8,0,0,1-3.09-.59,7.23,7.23,0,0,1-2.45-1.65,7.81,7.81,0,0,1-1.62-2.5,8.17,8.17,0,0,1-.59-3.14,8.37,8.37,0,0,1,.58-3.14,7.59,7.59,0,0,1,1.6-2.5,7.35,7.35,0,0,1,2.4-1.65,7.45,7.45,0,0,1,3-.59,7.3,7.3,0,0,1,3,.61,6.74,6.74,0,0,1,2.26,1.62,6.92,6.92,0,0,1,1.39,2.37,8.63,8.63,0,0,1,.48,2.9v1H626.86ZM637,532.11a4.79,4.79,0,0,0-1.28-3.47,4.74,4.74,0,0,0-3.58-1.33,5.11,5.11,0,0,0-2,.4,5.6,5.6,0,0,0-1.68,1.07,5.39,5.39,0,0,0-1.15,1.54,4,4,0,0,0-.43,1.79H637Z" transform="translate(-106.3 -70.92)" style="fill:#f2f2f2"/><path d="M645.77,540.75h-2.11V516.56h2.11v24.19Z" transform="translate(-106.3 -70.92)" style="fill:#f2f2f2"/><path d="M666,533.26a8.17,8.17,0,0,1-.59,3.14,7.42,7.42,0,0,1-4.16,4.14,8.47,8.47,0,0,1-3.22.59,8.38,8.38,0,0,1-3.18-.59,7.42,7.42,0,0,1-4.16-4.14,8.61,8.61,0,0,1,0-6.27,7.42,7.42,0,0,1,4.16-4.14,8.38,8.38,0,0,1,3.18-.59,8.47,8.47,0,0,1,3.22.59,7.42,7.42,0,0,1,4.16,4.14A8.17,8.17,0,0,1,666,533.26Zm-2.3,0a6.72,6.72,0,0,0-.4-2.34,5.63,5.63,0,0,0-1.14-1.89,5.35,5.35,0,0,0-1.78-1.26,6.2,6.2,0,0,0-4.7,0,5.16,5.16,0,0,0-1.76,1.26,5.75,5.75,0,0,0-1.12,1.89,7,7,0,0,0,0,4.67,5.74,5.74,0,0,0,1.12,1.89,5.15,5.15,0,0,0,1.76,1.26,6.2,6.2,0,0,0,4.7,0,5.33,5.33,0,0,0,1.78-1.26,5.62,5.62,0,0,0,1.14-1.89A6.72,6.72,0,0,0,663.69,533.26Z" transform="translate(-106.3 -70.92)" style="fill:#f2f2f2"/><path d="M669.83,525.78h2.11v2.5H672a5.48,5.48,0,0,1,1.22-1.31,7.54,7.54,0,0,1,1.47-.9,7.11,7.11,0,0,1,1.58-.51,8.09,8.09,0,0,1,1.55-.16A8.47,8.47,0,0,1,681,526a7.42,7.42,0,0,1,4.16,4.14,8.61,8.61,0,0,1,0,6.27,7.42,7.42,0,0,1-4.16,4.14,8.47,8.47,0,0,1-3.22.59,8.09,8.09,0,0,1-1.55-.16,7.06,7.06,0,0,1-1.58-.51,7.49,7.49,0,0,1-1.47-.9,5.46,5.46,0,0,1-1.22-1.31h-0.06V550h-2.11V525.78Zm13.66,7.49a6.72,6.72,0,0,0-.4-2.34A5.64,5.64,0,0,0,682,529a5.35,5.35,0,0,0-1.78-1.26,5.71,5.71,0,0,0-2.35-.46,6.05,6.05,0,0,0-2.4.46,5.92,5.92,0,0,0-1.89,1.26,5.7,5.7,0,0,0-1.25,1.89,6.31,6.31,0,0,0,0,4.67,5.69,5.69,0,0,0,1.25,1.89,5.9,5.9,0,0,0,1.89,1.26,6.05,6.05,0,0,0,2.4.46,5.71,5.71,0,0,0,2.35-.46,5.33,5.33,0,0,0,1.78-1.26,5.63,5.63,0,0,0,1.14-1.89A6.72,6.72,0,0,0,683.5,533.26Z" transform="translate(-106.3 -70.92)" style="fill:#f2f2f2"/><path d="M347.46,667.92A6.42,6.42,0,0,0,348,670a5.52,5.52,0,0,0,2.88,2.85,5.15,5.15,0,0,0,2.08.42,5.34,5.34,0,0,0,2.93-.78,5.86,5.86,0,0,0,1.87-1.81l1.63,1.34a8.11,8.11,0,0,1-3,2.43,8.29,8.29,0,0,1-3.47.74,8,8,0,0,1-3.09-.59,7.22,7.22,0,0,1-2.45-1.65,7.8,7.8,0,0,1-1.62-2.5,8.16,8.16,0,0,1-.59-3.14,8.37,8.37,0,0,1,.58-3.14,7.59,7.59,0,0,1,1.6-2.5,7.35,7.35,0,0,1,2.4-1.65,7.45,7.45,0,0,1,3-.59,7.3,7.3,0,0,1,3,.61,6.75,6.75,0,0,1,2.26,1.62,6.91,6.91,0,0,1,1.39,2.37,8.63,8.63,0,0,1,.48,2.9v1H347.46Zm10.18-1.73a4.79,4.79,0,0,0-1.28-3.47,4.74,4.74,0,0,0-3.58-1.33,5.11,5.11,0,0,0-2,.4,5.6,5.6,0,0,0-1.68,1.07A5.38,5.38,0,0,0,348,664.4a4,4,0,0,0-.43,1.79h10.11Z" transform="translate(-106.3 -70.92)" style="fill:#f2f2f2"/><path d="M367.65,666.83l-5.44-7h2.88l4.16,5.6,4-5.6h2.62l-5.22,7,6.27,8H374l-5-6.56-4.83,6.56h-2.69Z" transform="translate(-106.3 -70.92)" style="fill:#f2f2f2"/><path d="M380.67,667.92a6.42,6.42,0,0,0,.54,2.11,5.52,5.52,0,0,0,2.88,2.85,5.15,5.15,0,0,0,2.08.42,5.34,5.34,0,0,0,2.93-.78A5.86,5.86,0,0,0,391,670.7l1.63,1.34a8.11,8.11,0,0,1-3,2.43,8.29,8.29,0,0,1-3.47.74,8,8,0,0,1-3.09-.59,7.22,7.22,0,0,1-2.45-1.65,7.8,7.8,0,0,1-1.62-2.5,8.16,8.16,0,0,1-.59-3.14,8.37,8.37,0,0,1,.58-3.14,7.59,7.59,0,0,1,1.6-2.5,7.35,7.35,0,0,1,2.4-1.65,7.45,7.45,0,0,1,3-.59,7.3,7.3,0,0,1,3,.61,6.75,6.75,0,0,1,2.26,1.62,6.91,6.91,0,0,1,1.39,2.37,8.63,8.63,0,0,1,.48,2.9v1H380.67Zm10.18-1.73a4.79,4.79,0,0,0-1.28-3.47,4.74,4.74,0,0,0-3.58-1.33,5.11,5.11,0,0,0-2,.4,5.6,5.6,0,0,0-1.68,1.07,5.38,5.38,0,0,0-1.15,1.54,4,4,0,0,0-.43,1.79h10.11Z" transform="translate(-106.3 -70.92)" style="fill:#f2f2f2"/><path d="M407.9,663.37a4.51,4.51,0,0,0-1.52-1.41,4.28,4.28,0,0,0-2.22-.58,5.53,5.53,0,0,0-2.35.42,5.14,5.14,0,0,0-1.78,1.25,5.38,5.38,0,0,0-1.12,1.9,7.59,7.59,0,0,0,0,4.77,5.37,5.37,0,0,0,1.12,1.9,5.11,5.11,0,0,0,1.78,1.25,5.52,5.52,0,0,0,2.35.42,4.29,4.29,0,0,0,2.22-.58,4.52,4.52,0,0,0,1.52-1.41l1.73,1.31a7.11,7.11,0,0,1-2.53,1.94,7.59,7.59,0,0,1-2.94.66,8.37,8.37,0,0,1-3.3-.56,7.29,7.29,0,0,1-2.51-1.65,7,7,0,0,1-1.58-2.51,9.4,9.4,0,0,1,0-6.3,7,7,0,0,1,1.58-2.51,7.3,7.3,0,0,1,2.51-1.65,8.37,8.37,0,0,1,3.3-.56,7.59,7.59,0,0,1,2.94.66,7.11,7.11,0,0,1,2.53,1.94Z" transform="translate(-106.3 -70.92)" style="fill:#f2f2f2"/><path d="M423.23,674.83q-0.06-.61-0.08-1.2t0-1.2h-0.06a5,5,0,0,1-.9,1.12,5.89,5.89,0,0,1-1.22.88,6.66,6.66,0,0,1-1.42.58,5.57,5.57,0,0,1-1.49.21,5.46,5.46,0,0,1-4.26-1.52,6.24,6.24,0,0,1-1.38-4.34v-9.5h2.11v8.29a11.36,11.36,0,0,0,.19,2.21,4.19,4.19,0,0,0,.66,1.62,2.87,2.87,0,0,0,1.25,1,5,5,0,0,0,2,.34,8,8,0,0,0,.9-0.13,3.88,3.88,0,0,0,1.55-.7,5.09,5.09,0,0,0,1.46-1.73,6.64,6.64,0,0,0,.64-3.2v-7.68h2.11v11.68q0,0.61,0,1.54t0.11,1.76h-2.18Z" transform="translate(-106.3 -70.92)" style="fill:#f2f2f2"/><path d="M438,661.77h-4.32v8.83a4.77,4.77,0,0,0,.16,1.36,1.92,1.92,0,0,0,.45.82,1.54,1.54,0,0,0,.69.4,3.28,3.28,0,0,0,.88.11,4.18,4.18,0,0,0,1.12-.16,5.21,5.21,0,0,0,1.06-.42l0.1,2a6.77,6.77,0,0,1-2.85.54,5.34,5.34,0,0,1-1.26-.16,3,3,0,0,1-1.2-.61,3.35,3.35,0,0,1-.9-1.22,4.87,4.87,0,0,1-.35-2v-9.44h-3.17v-1.92h3.17v-4.22h2.11v4.22H438v1.92Z" transform="translate(-106.3 -70.92)" style="fill:#f2f2f2"/><path d="M442.3,667.92a6.41,6.41,0,0,0,.54,2.11,5.52,5.52,0,0,0,2.88,2.85,5.16,5.16,0,0,0,2.08.42,5.34,5.34,0,0,0,2.93-.78,5.85,5.85,0,0,0,1.87-1.81l1.63,1.34a8.1,8.1,0,0,1-3,2.43,8.28,8.28,0,0,1-3.47.74,8,8,0,0,1-3.09-.59,7.23,7.23,0,0,1-2.45-1.65,7.81,7.81,0,0,1-1.62-2.5,8.17,8.17,0,0,1-.59-3.14,8.37,8.37,0,0,1,.58-3.14,7.59,7.59,0,0,1,1.6-2.5,7.35,7.35,0,0,1,2.4-1.65,7.45,7.45,0,0,1,3-.59,7.3,7.3,0,0,1,3,.61,6.74,6.74,0,0,1,2.26,1.62,6.92,6.92,0,0,1,1.39,2.37,8.63,8.63,0,0,1,.48,2.9v1H442.3Zm10.18-1.73a4.79,4.79,0,0,0-1.28-3.47,4.74,4.74,0,0,0-3.58-1.33,5.11,5.11,0,0,0-2,.4,5.6,5.6,0,0,0-1.68,1.07,5.39,5.39,0,0,0-1.15,1.54,4,4,0,0,0-.43,1.79h10.11Z" transform="translate(-106.3 -70.92)" style="fill:#f2f2f2"/><path d="M113.14,529.1c0-.55,0-1.11,0-1.66s-0.07-1.11-.11-1.66h2.27V528h0.06a5,5,0,0,1,2.13-2,6.06,6.06,0,0,1,2.7-.67,7.14,7.14,0,0,1,1.3.13,4.73,4.73,0,0,1,1.33.46,4.48,4.48,0,0,1,1.2.94,5.07,5.07,0,0,1,.94,1.57,4.93,4.93,0,0,1,2-2.27,5.57,5.57,0,0,1,2.9-.83,5.46,5.46,0,0,1,4.26,1.52,6.24,6.24,0,0,1,1.38,4.34v9.5h-2.11V532a6.35,6.35,0,0,0-.8-3.49,3.3,3.3,0,0,0-3-1.22,3.91,3.91,0,0,0-2,.46,3.78,3.78,0,0,0-1.3,1.23,5.4,5.4,0,0,0-.72,1.74,9.05,9.05,0,0,0-.22,2v8h-2.11V532a6.35,6.35,0,0,0-.8-3.49,3.3,3.3,0,0,0-3-1.22,6.64,6.64,0,0,0-.88.13,3.35,3.35,0,0,0-1.42.7,5.12,5.12,0,0,0-1.33,1.73,7.1,7.1,0,0,0-.59,3.2v7.68h-2.11V529.1Z" transform="translate(-106.3 -70.92)" style="fill:#f2f2f2"/><path d="M141.88,533.84a6.42,6.42,0,0,0,.54,2.11,5.52,5.52,0,0,0,2.88,2.85,5.17,5.17,0,0,0,2.08.42,5.33,5.33,0,0,0,2.93-.78,5.87,5.87,0,0,0,1.87-1.81l1.63,1.34a8.11,8.11,0,0,1-3,2.43,8.27,8.27,0,0,1-3.47.74,8,8,0,0,1-3.09-.59,7.23,7.23,0,0,1-2.45-1.65,7.8,7.8,0,0,1-1.62-2.5,8.16,8.16,0,0,1-.59-3.14,8.37,8.37,0,0,1,.58-3.14,7.59,7.59,0,0,1,1.6-2.5,7.37,7.37,0,0,1,2.4-1.65,7.45,7.45,0,0,1,3-.59,7.3,7.3,0,0,1,3,.61,6.74,6.74,0,0,1,2.26,1.62,6.92,6.92,0,0,1,1.39,2.37,8.63,8.63,0,0,1,.48,2.9v1H141.88Zm10.18-1.73a4.8,4.8,0,0,0-1.28-3.47,4.75,4.75,0,0,0-3.58-1.33,5.11,5.11,0,0,0-2,.4,5.58,5.58,0,0,0-1.68,1.07,5.38,5.38,0,0,0-1.15,1.54,4,4,0,0,0-.43,1.79h10.11Z" transform="translate(-106.3 -70.92)" style="fill:#f2f2f2"/><path d="M167.8,531.57v-0.38q0-3.87-3.84-3.87a6.62,6.62,0,0,0-4.58,1.76l-1.28-1.5q2.11-2.18,6.34-2.18a6.9,6.9,0,0,1,2.1.32,4.74,4.74,0,0,1,1.74,1,4.85,4.85,0,0,1,1.18,1.65,5.72,5.72,0,0,1,.45,2.37v6.69q0,0.86.08,1.81t0.18,1.55h-2a11.89,11.89,0,0,1-.14-1.18q0-.64,0-1.25h-0.06a5.72,5.72,0,0,1-2.19,2.16,6.64,6.64,0,0,1-3.09.66,6.78,6.78,0,0,1-1.92-.27A4.87,4.87,0,0,1,159,540a4.21,4.21,0,0,1-1.15-1.38,4,4,0,0,1-.43-1.9,4.1,4.1,0,0,1,.94-2.86,5.76,5.76,0,0,1,2.37-1.55,11.71,11.71,0,0,1,3-.64q1.61-.13,3-0.13h1.06Zm-1.09,1.73q-0.8,0-2,.08a11.61,11.61,0,0,0-2.3.38,5.07,5.07,0,0,0-1.89.94,2.15,2.15,0,0,0-.78,1.76,2.48,2.48,0,0,0,.3,1.26,2.52,2.52,0,0,0,.82.86,3.47,3.47,0,0,0,1.14.48,5.56,5.56,0,0,0,1.26.14,4.82,4.82,0,0,0,2-.38,4.07,4.07,0,0,0,2.27-2.58,6.31,6.31,0,0,0,.27-1.87V533.3h-1.09Z" transform="translate(-106.3 -70.92)" style="fill:#f2f2f2"/><path d="M182.74,529.33a3.92,3.92,0,0,0-1.28-1.47,3.39,3.39,0,0,0-2-.54,5,5,0,0,0-1.1.13,3.4,3.4,0,0,0-1,.4,2.23,2.23,0,0,0-.72.69,1.84,1.84,0,0,0-.27,1,1.7,1.7,0,0,0,.74,1.54,7.26,7.26,0,0,0,2.21.83l2.14,0.51a5.11,5.11,0,0,1,2.61,1.42,3.69,3.69,0,0,1,1,2.67,4.2,4.2,0,0,1-.5,2.1,4.25,4.25,0,0,1-1.31,1.44,5.6,5.6,0,0,1-1.87.82,9.11,9.11,0,0,1-2.14.26,7.88,7.88,0,0,1-3.22-.66,5.92,5.92,0,0,1-2.54-2.26l1.82-1.25a5,5,0,0,0,1.62,1.63,4.29,4.29,0,0,0,2.32.61,5.78,5.78,0,0,0,1.28-.14,3.71,3.71,0,0,0,1.14-.45,2.45,2.45,0,0,0,.8-0.78,2.05,2.05,0,0,0,.3-1.12,1.74,1.74,0,0,0-.83-1.62,7.33,7.33,0,0,0-2-.78l-2-.48q-0.38-.1-1-0.32a4.89,4.89,0,0,1-1.28-.67,4,4,0,0,1-1.07-1.17,3.3,3.3,0,0,1-.45-1.78,4.2,4.2,0,0,1,.46-2,4,4,0,0,1,1.25-1.41,5.74,5.74,0,0,1,1.78-.82,7.7,7.7,0,0,1,2-.27,7,7,0,0,1,2.91.61,4.28,4.28,0,0,1,2.08,2.08Z" transform="translate(-106.3 -70.92)" style="fill:#f2f2f2"/><path d="M199.25,540.75q-0.06-.61-0.08-1.2t0-1.2h-0.06a4.93,4.93,0,0,1-.9,1.12,5.88,5.88,0,0,1-1.22.88,6.61,6.61,0,0,1-1.42.58,5.56,5.56,0,0,1-1.49.21,5.46,5.46,0,0,1-4.26-1.52,6.24,6.24,0,0,1-1.38-4.34v-9.5h2.11v8.29a11.35,11.35,0,0,0,.19,2.21,4.17,4.17,0,0,0,.66,1.62,2.88,2.88,0,0,0,1.25,1,5,5,0,0,0,2,.34,8.22,8.22,0,0,0,.9-0.13,3.9,3.9,0,0,0,1.55-.7,5.08,5.08,0,0,0,1.46-1.73,6.64,6.64,0,0,0,.64-3.2v-7.68h2.11v11.68q0,0.61,0,1.54t0.11,1.76h-2.18Z" transform="translate(-106.3 -70.92)" style="fill:#f2f2f2"/><path d="M206.45,530.45q0-1,0-2t-0.08-2.66h2.08v2.78h0.06a4.66,4.66,0,0,1,.64-1.17,5,5,0,0,1,1-1,4.92,4.92,0,0,1,1.38-.72,5.39,5.39,0,0,1,1.78-.27,5.74,5.74,0,0,1,1.57.19l-0.42,2.08a3.56,3.56,0,0,0-1.22-.16,4.35,4.35,0,0,0-2.08.46,4.62,4.62,0,0,0-1.44,1.18,4.92,4.92,0,0,0-.85,1.55,5.13,5.13,0,0,0-.27,1.6v8.45h-2.11v-10.3Z" transform="translate(-106.3 -70.92)" style="fill:#f2f2f2"/><path d="M217.75,533.84a6.42,6.42,0,0,0,.54,2.11,5.52,5.52,0,0,0,2.88,2.85,5.17,5.17,0,0,0,2.08.42,5.33,5.33,0,0,0,2.93-.78,5.87,5.87,0,0,0,1.87-1.81l1.63,1.34a8.11,8.11,0,0,1-3,2.43,8.27,8.27,0,0,1-3.47.74,8,8,0,0,1-3.09-.59,7.23,7.23,0,0,1-2.45-1.65,7.8,7.8,0,0,1-1.62-2.5,8.16,8.16,0,0,1-.59-3.14,8.37,8.37,0,0,1,.58-3.14,7.59,7.59,0,0,1,1.6-2.5,7.37,7.37,0,0,1,2.4-1.65,7.45,7.45,0,0,1,3-.59,7.3,7.3,0,0,1,3,.61,6.74,6.74,0,0,1,2.26,1.62,6.92,6.92,0,0,1,1.39,2.37,8.63,8.63,0,0,1,.48,2.9v1H217.75Zm10.18-1.73a4.8,4.8,0,0,0-1.28-3.47,4.75,4.75,0,0,0-3.58-1.33,5.11,5.11,0,0,0-2,.4,5.58,5.58,0,0,0-1.68,1.07,5.38,5.38,0,0,0-1.15,1.54,4,4,0,0,0-.43,1.79h10.11Z" transform="translate(-106.3 -70.92)" style="fill:#f2f2f2"/><path d="M357.55,146.67h-2.11v-2.5h-0.06a5.49,5.49,0,0,1-1.22,1.31,7.5,7.5,0,0,1-1.47.9,7,7,0,0,1-1.58.51,8.09,8.09,0,0,1-1.55.16,8.46,8.46,0,0,1-3.22-.59,7.42,7.42,0,0,1-4.16-4.14,8.6,8.6,0,0,1,0-6.27,7.42,7.42,0,0,1,4.16-4.14,8.46,8.46,0,0,1,3.22-.59,8.09,8.09,0,0,1,1.55.16,7.08,7.08,0,0,1,1.58.51,7.57,7.57,0,0,1,1.47.9,5.49,5.49,0,0,1,1.22,1.31h0.06V122.48h2.11v24.19Zm-13.66-7.49a6.71,6.71,0,0,0,.4,2.34,5.6,5.6,0,0,0,1.14,1.89,5.32,5.32,0,0,0,1.78,1.26,5.71,5.71,0,0,0,2.35.46,6.08,6.08,0,0,0,2.38-.46,5.88,5.88,0,0,0,1.9-1.26,5.73,5.73,0,0,0,1.25-1.89,6.32,6.32,0,0,0,0-4.67,5.74,5.74,0,0,0-1.25-1.89,5.89,5.89,0,0,0-1.9-1.26,6.09,6.09,0,0,0-2.38-.46,5.72,5.72,0,0,0-2.35.46,5.34,5.34,0,0,0-1.78,1.26,5.61,5.61,0,0,0-1.14,1.89A6.71,6.71,0,0,0,343.89,139.19Z" transform="translate(-106.3 -70.92)" style="fill:#f2f2f2"/><path d="M365.23,125.94a1.42,1.42,0,0,1-.48,1.1,1.51,1.51,0,0,1-2.11,0,1.51,1.51,0,0,1,0-2.21,1.51,1.51,0,0,1,2.11,0A1.42,1.42,0,0,1,365.23,125.94Zm-0.48,20.74h-2.11v-15h2.11v15Z" transform="translate(-106.3 -70.92)" style="fill:#f2f2f2"/><path d="M377.78,135.25a3.92,3.92,0,0,0-1.28-1.47,3.39,3.39,0,0,0-2-.54,5,5,0,0,0-1.1.13,3.39,3.39,0,0,0-1,.4,2.23,2.23,0,0,0-.72.69,1.84,1.84,0,0,0-.27,1,1.7,1.7,0,0,0,.74,1.54,7.24,7.24,0,0,0,2.21.83l2.14,0.51a5.1,5.1,0,0,1,2.61,1.42,3.69,3.69,0,0,1,1,2.67,4.2,4.2,0,0,1-.5,2.1,4.25,4.25,0,0,1-1.31,1.44,5.6,5.6,0,0,1-1.87.82,9.08,9.08,0,0,1-2.14.26,7.89,7.89,0,0,1-3.22-.66,5.93,5.93,0,0,1-2.54-2.26l1.82-1.25a5,5,0,0,0,1.62,1.63,4.29,4.29,0,0,0,2.32.61,5.81,5.81,0,0,0,1.28-.14,3.71,3.71,0,0,0,1.14-.45,2.45,2.45,0,0,0,.8-0.78,2.05,2.05,0,0,0,.3-1.12A1.74,1.74,0,0,0,377,141a7.3,7.3,0,0,0-2-.78l-2-.48q-0.38-.1-1-0.32a4.9,4.9,0,0,1-1.28-.67,4,4,0,0,1-1.07-1.17,3.3,3.3,0,0,1-.45-1.78,4.19,4.19,0,0,1,.46-2,4,4,0,0,1,1.25-1.41,5.76,5.76,0,0,1,1.78-.82,7.72,7.72,0,0,1,2-.27,7,7,0,0,1,2.91.61,4.28,4.28,0,0,1,2.08,2.08Z" transform="translate(-106.3 -70.92)" style="fill:#f2f2f2"/><path d="M394.38,135.22a4.51,4.51,0,0,0-1.52-1.41,4.29,4.29,0,0,0-2.22-.58,5.55,5.55,0,0,0-2.35.42,5.14,5.14,0,0,0-1.78,1.25,5.38,5.38,0,0,0-1.12,1.9,7.59,7.59,0,0,0,0,4.77,5.37,5.37,0,0,0,1.12,1.9,5.13,5.13,0,0,0,1.78,1.25,5.53,5.53,0,0,0,2.35.42,4.29,4.29,0,0,0,2.22-.58,4.51,4.51,0,0,0,1.52-1.41l1.73,1.31a7.11,7.11,0,0,1-2.53,1.94,7.59,7.59,0,0,1-2.94.66,8.38,8.38,0,0,1-3.3-.56,7.29,7.29,0,0,1-2.51-1.65,7,7,0,0,1-1.58-2.51,9.4,9.4,0,0,1,0-6.3,7,7,0,0,1,1.58-2.51,7.29,7.29,0,0,1,2.51-1.65,8.37,8.37,0,0,1,3.3-.56,7.59,7.59,0,0,1,2.94.66,7.12,7.12,0,0,1,2.53,1.94Z" transform="translate(-106.3 -70.92)" style="fill:#f2f2f2"/><path d="M414,139.19a8.17,8.17,0,0,1-.59,3.14,7.43,7.43,0,0,1-4.16,4.14,8.47,8.47,0,0,1-3.22.59,8.38,8.38,0,0,1-3.18-.59,7.42,7.42,0,0,1-4.16-4.14,8.6,8.6,0,0,1,0-6.27,7.42,7.42,0,0,1,4.16-4.14,8.38,8.38,0,0,1,3.18-.59,8.47,8.47,0,0,1,3.22.59,7.43,7.43,0,0,1,4.16,4.14A8.17,8.17,0,0,1,414,139.19Zm-2.3,0a6.72,6.72,0,0,0-.4-2.34,5.63,5.63,0,0,0-1.14-1.89,5.35,5.35,0,0,0-1.78-1.26,6.2,6.2,0,0,0-4.7,0A5.16,5.16,0,0,0,402,135a5.74,5.74,0,0,0-1.12,1.89,7,7,0,0,0,0,4.67,5.73,5.73,0,0,0,1.12,1.89,5.15,5.15,0,0,0,1.76,1.26,6.2,6.2,0,0,0,4.7,0,5.33,5.33,0,0,0,1.78-1.26,5.61,5.61,0,0,0,1.14-1.89A6.72,6.72,0,0,0,411.73,139.19Z" transform="translate(-106.3 -70.92)" style="fill:#f2f2f2"/><path d="M424.46,146.67H422.1l-6.08-15h2.5l4.8,12.61h0.06l4.77-12.61h2.4Z" transform="translate(-106.3 -70.92)" style="fill:#f2f2f2"/><path d="M434.77,139.76a6.41,6.41,0,0,0,.54,2.11,5.52,5.52,0,0,0,2.88,2.85,5.16,5.16,0,0,0,2.08.42,5.33,5.33,0,0,0,2.93-.78,5.85,5.85,0,0,0,1.87-1.81l1.63,1.34a8.1,8.1,0,0,1-3,2.43,8.27,8.27,0,0,1-3.47.74,8,8,0,0,1-3.09-.59,7.23,7.23,0,0,1-2.45-1.65,7.81,7.81,0,0,1-1.62-2.5,8.17,8.17,0,0,1-.59-3.14,8.37,8.37,0,0,1,.58-3.14,7.59,7.59,0,0,1,1.6-2.5,7.36,7.36,0,0,1,2.4-1.65,7.45,7.45,0,0,1,3-.59,7.3,7.3,0,0,1,3,.61,6.73,6.73,0,0,1,2.26,1.62,6.92,6.92,0,0,1,1.39,2.37,8.63,8.63,0,0,1,.48,2.9v1H434.77ZM444.94,138a4.79,4.79,0,0,0-1.28-3.47,4.74,4.74,0,0,0-3.58-1.33,5.11,5.11,0,0,0-2,.4,5.59,5.59,0,0,0-1.68,1.07,5.38,5.38,0,0,0-1.15,1.54,4,4,0,0,0-.43,1.79h10.11Z" transform="translate(-106.3 -70.92)" style="fill:#f2f2f2"/><path d="M451.31,136.37q0-1,0-2t-0.08-2.66h2.08v2.78h0.06a4.66,4.66,0,0,1,.64-1.17,5,5,0,0,1,1-1,4.94,4.94,0,0,1,1.38-.72,5.4,5.4,0,0,1,1.78-.27,5.74,5.74,0,0,1,1.57.19l-0.42,2.08a3.56,3.56,0,0,0-1.22-.16,4.35,4.35,0,0,0-2.08.46,4.62,4.62,0,0,0-1.44,1.18,4.91,4.91,0,0,0-.85,1.55,5.13,5.13,0,0,0-.27,1.6v8.45h-2.11v-10.3Z" transform="translate(-106.3 -70.92)" style="fill:#f2f2f2"/><g style="clip-path:url(#clip-path-2)"><rect width="587.4" height="658.15" style="fill:url(#linear-gradient)"/></g></svg>